<?xml version="1.0" encoding="utf-8"?>
<!-- Generator: Adobe Illustrator 22.0.0, SVG Export Plug-In . SVG Version: 6.00 Build 0)  -->
<svg xmlns="http://www.w3.org/2000/svg" xmlns:xlink="http://www.w3.org/1999/xlink" version="1.1" id="Layer_1" x="0px" y="0px" viewBox="0 0 59.1 22.2" style="enable-background:new 0 0 59.1 22.2;" xml:space="preserve">
<style type="text/css">
	.st0{fill:#FFFFFF;}
</style>
<g>
	<g>
		<path class="st0" d="M6.2,13.8C6.1,14.3,6,14.6,6,14.9c0,0.3-0.1,0.5-0.1,0.7s0,0.4,0.1,0.6s0.2,0.5,0.4,0.7    c0.3,0.3,0.8,0.5,1.3,0.5c0.3,0,0.6,0,0.9-0.1s0.5-0.2,0.6-0.4c0.3-0.3,0.5-0.6,0.6-1.1c0.1-0.4,0.2-0.8,0.3-1.2l3.1-14.5h5.9    l-3,14.1c-0.1,0.4-0.2,0.9-0.3,1.4c-0.1,0.5-0.3,1.1-0.5,1.6c-0.2,0.6-0.5,1.1-0.8,1.6s-0.7,1-1.1,1.4s-0.9,0.8-1.5,1    c-0.6,0.3-1.1,0.4-1.7,0.6C9.6,21.9,9.1,22,8.6,22s-1,0.1-1.4,0.1s-0.8,0-1.2,0c-0.4,0-0.9-0.1-1.4-0.2s-1-0.2-1.4-0.4    c-0.5-0.2-0.9-0.4-1.2-0.7c-0.4-0.3-0.7-0.6-1-1c-0.2-0.4-0.4-0.7-0.6-1.1c-0.1-0.4-0.2-0.7-0.3-1.1c0-0.4-0.1-0.7-0.1-1    c0-0.2,0-0.4,0-0.7c0-0.3,0-0.6,0.1-0.9c0-0.3,0.1-0.6,0.1-0.9s0.1-0.5,0.1-0.7l0.1-0.2h5.7L6.2,13.8z"/>
		<path class="st0" d="M19.5,8.9c0.4-0.7,0.9-1.2,1.4-1.7c0.5-0.4,1-0.7,1.5-0.9c0.5-0.2,1-0.4,1.5-0.5s1-0.2,1.5-0.2s0.9,0,1.4,0    c1.5,0,2.6,0.1,3.3,0.3c0.8,0.2,1.3,0.4,1.7,0.6c0.8,0.4,1.3,1,1.7,1.6c0.3,0.6,0.5,1.4,0.5,2.2c0,0.4,0,0.8-0.1,1.2    c-0.1,0.4-0.2,0.8-0.3,1.3l-1.3,6.1c0,0.2-0.1,0.4-0.1,0.7c0,0.3-0.1,0.5-0.1,0.6s0,0.3,0,0.4s0.1,0.3,0.2,0.4s0.2,0.2,0.4,0.2    v0.3h-5.9l-0.1-1.6h-0.1c-0.3,0.3-0.6,0.6-1,0.9c-0.3,0.3-0.7,0.5-1.1,0.7c-0.5,0.2-1,0.4-1.6,0.5s-1.1,0.2-1.7,0.2    c-0.2,0-0.4,0-0.6,0c-0.3,0-0.5,0-0.8-0.1s-0.6-0.1-0.9-0.3c-0.3-0.1-0.6-0.3-0.9-0.4c-0.5-0.3-0.9-0.7-1.1-1.2    c-0.3-0.5-0.4-1.2-0.4-1.9c0-0.8,0.1-1.6,0.4-2.1c0.3-0.6,0.6-1.1,1-1.4c0.3-0.3,0.7-0.6,1.1-0.8c0.4-0.2,0.8-0.4,1.3-0.5    c0.4-0.1,0.8-0.2,1.2-0.3l1-0.2l1.9-0.2c0.9-0.1,1.6-0.2,2.2-0.3c0.6-0.1,1-0.3,1.3-0.5c0.2-0.2,0.4-0.4,0.5-0.6s0.1-0.5,0.1-0.7    s0-0.4-0.1-0.6S28.2,9.7,28,9.5c-0.2-0.1-0.4-0.2-0.8-0.3c-0.3-0.1-0.6-0.1-0.8-0.1c-0.5,0-0.8,0.1-1.1,0.2    c-0.3,0.1-0.5,0.3-0.7,0.4c-0.2,0.2-0.4,0.5-0.5,0.8s-0.2,0.6-0.2,0.9h-5.5C18.8,10.3,19.1,9.5,19.5,8.9z M27.4,14.7    c-0.2,0.1-0.3,0.1-0.6,0.2C26.6,15,26.3,15,26,15.1s-0.6,0.1-0.9,0.2c-0.4,0.1-0.9,0.1-1.3,0.2s-0.8,0.3-1.1,0.6    c-0.3,0.3-0.5,0.7-0.5,1.3c0,0.2,0,0.4,0.1,0.6s0.2,0.4,0.4,0.5c0.2,0.1,0.4,0.2,0.6,0.3c0.2,0,0.4,0,0.6,0c0.3,0,0.7,0,1-0.1    s0.6-0.2,0.9-0.4c0.6-0.4,1-0.9,1.3-1.5s0.4-1.1,0.5-1.5l0.2-0.7C27.7,14.5,27.5,14.6,27.4,14.7z"/>
		<path class="st0" d="M39.5,21.5h-5.6L38.5,0h5.6L39.5,21.5z"/>
		<path class="st0" d="M44.6,8.9C45,8.2,45.5,7.7,46,7.2c0.5-0.4,1-0.7,1.5-0.9c0.5-0.2,1-0.4,1.5-0.5s1-0.2,1.5-0.2s0.9,0,1.4,0    c1.5,0,2.6,0.1,3.3,0.3c0.8,0.2,1.3,0.4,1.7,0.6c0.8,0.4,1.3,1,1.7,1.6c0.3,0.6,0.5,1.4,0.5,2.2c0,0.4,0,0.8-0.1,1.2    c-0.1,0.4-0.2,0.8-0.3,1.3l-1.3,6.1c0,0.2-0.1,0.4-0.1,0.7c0,0.3-0.1,0.5-0.1,0.6s0,0.3,0,0.4s0.1,0.3,0.2,0.4s0.2,0.2,0.4,0.2    v0.3h-5.7L52,19.9h-0.1c-0.3,0.3-0.6,0.6-0.9,0.9s-0.7,0.5-1.1,0.7c-0.5,0.2-1,0.4-1.6,0.5s-1.1,0.2-1.7,0.2c-0.2,0-0.4,0-0.6,0    c-0.3,0-0.5,0-0.8-0.1s-0.6-0.1-0.9-0.3c-0.3-0.1-0.6-0.3-0.9-0.4c-0.5-0.3-0.9-0.7-1.1-1.2c-0.3-0.5-0.4-1.2-0.4-1.9    c0-0.8,0.1-1.6,0.4-2.1c0.3-0.6,0.6-1.1,1-1.4c0.3-0.3,0.7-0.6,1.1-0.8c0.4-0.2,0.8-0.4,1.3-0.5c0.4-0.1,0.8-0.2,1.2-0.3l1-0.2    l1.9-0.2c0.9-0.1,1.6-0.2,2.2-0.3c0.6-0.1,1-0.3,1.3-0.5c0.2-0.2,0.4-0.4,0.5-0.6s0.1-0.5,0.1-0.7s0-0.4-0.1-0.6s-0.2-0.4-0.4-0.6    c-0.2-0.1-0.4-0.2-0.8-0.3c-0.3-0.1-0.6-0.1-0.8-0.1c-0.5,0-0.8,0.1-1.1,0.2c-0.3,0.1-0.5,0.3-0.7,0.4c-0.2,0.2-0.4,0.5-0.5,0.8    s-0.2,0.6-0.2,0.9h-5.5C43.9,10.3,44.2,9.5,44.6,8.9z M52.5,14.7c-0.2,0.1-0.3,0.1-0.6,0.2c-0.2,0.1-0.5,0.1-0.8,0.2    s-0.6,0.1-0.9,0.2c-0.4,0.1-0.9,0.1-1.3,0.2s-0.8,0.3-1.1,0.6c-0.3,0.3-0.5,0.7-0.5,1.3c0,0.2,0,0.4,0.1,0.6s0.2,0.4,0.4,0.5    c0.2,0.1,0.4,0.2,0.6,0.3c0.2,0,0.4,0,0.6,0c0.3,0,0.7,0,1-0.1s0.6-0.2,0.9-0.4c0.6-0.4,1-0.9,1.3-1.5s0.4-1.1,0.5-1.5l0.2-0.7    C52.8,14.5,52.7,14.6,52.5,14.7z"/>
	</g>
</g>
</svg>
